grf
version=1
nRows=6
nColumns=37
inDegrees=no
endheader
time	ground_force_1_vx	ground_force_1_vy	ground_force_1_vz	ground_force_1_px	ground_force_1_py	ground_force_1_pz	ground_moment_1_mx	ground_moment_1_my	ground_moment_1_mz	ground_force_2_vx	ground_force_2_vy	ground_force_2_vz	ground_force_2_px	ground_force_2_py	ground_force_2_pz	ground_moment_2_mx	ground_moment_2_my	ground_moment_2_mz	ground_force_3_vx	ground_force_3_vy	ground_force_3_vz	ground_force_3_px	ground_force_3_py	ground_force_3_pz	ground_moment_3_mx	ground_moment_3_my	ground_moment_3_mz	ground_force_4_vx	ground_force_4_vy	ground_force_4_vz	ground_force_4_px	ground_force_4_py	ground_force_4_pz	ground_moment_4_mx	ground_moment_4_my	ground_moment_4_mz
      1.88000000	      0.00000000	     -0.00000000	      0.00000000	      0.00000000	      0.00000000	      0.00000000	      0.00000000	      0.00000000	      0.00000000	      0.00790576	     60.15224457	   -407.17376709	   -403.22645727	  -1202.05543330	      0.00000000	      0.00000000	      0.00000000	   2005.19595527	     -7.10990246	    -60.85364470	   -403.09994507	   -376.34090604	   -710.28766291	      0.00000000	      0.00000000	     -0.00000000	  -3142.56381893	      0.00000000	     -0.00000000	      0.00000000	      0.00000000	      0.00000000	      0.00000000	      0.00000000	      0.00000000	      0.00000000
      1.89000000	      0.00000000	     -0.00000000	      0.00000000	      0.00000000	      0.00000000	      0.00000000	      0.00000000	      0.00000000	      0.00000000	      0.94912022	     60.29504013	   -406.69332886	   -404.31986068	  -1200.21541224	      0.00000000	      0.00000000	      0.00000000	   2086.16247766	     -6.42214828	    -60.64489690	   -402.83633423	   -377.92451888	   -710.48843979	      0.00000000	      0.00000000	      0.00000000	  -3135.72266552	      0.00000000	     -0.00000000	      0.00000000	      0.00000000	      0.00000000	      0.00000000	      0.00000000	      0.00000000	      0.00000000
      1.90000000	      0.00000000	     -0.00000000	      0.00000000	      0.00000000	      0.00000000	      0.00000000	      0.00000000	      0.00000000	      0.00000000	      1.07052612	     60.26280212	   -406.90548706	   -406.18084957	  -1201.50496123	      0.00000000	      0.00000000	      0.00000000	   1708.89592230	     -5.58878475	    -60.68762921	   -403.57723999	   -378.25607441	   -710.65161589	      0.00000000	     -0.00000000	     -0.00000000	  -3118.47136521	      0.00000000	     -0.00000000	      0.00000000	      0.00000000	      0.00000000	      0.00000000	      0.00000000	      0.00000000	      0.00000000
      1.91000000	      0.00000000	     -0.00000000	      0.00000000	      0.00000000	      0.00000000	      0.00000000	      0.00000000	      0.00000000	      0.00000000	      1.35935056	     60.34128571	   -407.17453003	   -406.18913643	  -1201.81713993	      0.00000000	      0.00000000	      0.00000000	   1717.25728948	     -4.91095166	    -60.47921710	   -403.27014160	   -380.47885239	   -711.39721641	      0.00000000	      0.00000000	     -0.00000000	  -3101.70507327	      0.00000000	     -0.00000000	      0.00000000	      0.00000000	      0.00000000	      0.00000000	      0.00000000	      0.00000000	      0.00000000
      1.92000000	      0.00000000	     -0.00000000	      0.00000000	      0.00000000	      0.00000000	      0.00000000	      0.00000000	      0.00000000	      0.00000000	      1.89448881	     60.35181046	   -407.03009033	   -407.77475044	  -1200.99299872	      0.00000000	      0.00000000	      0.00000000	   1656.33301305	     -4.36794523	    -60.41203270	   -402.38882446	   -382.87692271	   -712.22086865	      0.00000000	      0.00000000	     -0.00000000	  -2953.20342995	      0.00000000	     -0.00000000	      0.00000000	      0.00000000	      0.00000000	      0.00000000	      0.00000000	      0.00000000	      0.00000000
      1.93000000	      0.00000000	     -0.00000000	      0.00000000	      0.00000000	      0.00000000	      0.00000000	      0.00000000	      0.00000000	      0.00000000	      2.97533035	     59.92698669	   -407.00939941	   -409.34269324	  -1201.15333777	      0.00000000	      0.00000000	      0.00000000	   1676.21392584	     -3.31859900	    -60.21451540	   -402.79718018	   -384.52618175	   -711.88951063	      0.00000000	      0.00000000	     -0.00000000	  -2962.69775516	      0.00000000	     -0.00000000	      0.00000000	      0.00000000	      0.00000000	      0.00000000	      0.00000000	      0.00000000	      0.00000000
